<svg width="71" height="11" viewBox="0 0 71 11" fill="none" xmlns="http://www.w3.org/2000/svg">
<path d="M5.82386 8H4.94318V1.50852H3.39489C3.00189 1.50852 2.68584 1.56889 2.44673 1.68963C2.20762 1.808 2.03362 1.97609 1.92472 2.19389C1.81581 2.41169 1.76136 2.66619 1.76136 2.95739C1.76136 3.24858 1.81463 3.49953 1.92116 3.71023C2.03007 3.91856 2.20289 4.07955 2.43963 4.19318C2.67874 4.30682 2.99242 4.36364 3.38068 4.36364H5.34091V5.15909H3.35227C2.78883 5.15909 2.32599 5.06558 1.96378 4.87855C1.60156 4.68916 1.33286 4.42874 1.15767 4.0973C0.982481 3.76586 0.894886 3.38589 0.894886 2.95739C0.894886 2.52888 0.982481 2.14654 1.15767 1.81037C1.33286 1.47419 1.60275 1.21023 1.96733 1.01847C2.33191 0.824337 2.7983 0.727273 3.36648 0.727273H5.82386V8ZM2.40057 4.73295H3.39489L1.63352 8H0.610795L2.40057 4.73295ZM7.47603 8V2.54545H8.3141V4.91761H8.86808L10.8283 2.54545H11.9078L9.70614 5.1733L11.9363 8H10.8567L9.06694 5.69886H8.3141V8H7.47603ZM13.3869 10.0455C13.2449 10.0455 13.1182 10.0336 13.0069 10.0099C12.8957 9.98864 12.8187 9.96733 12.7761 9.94602L12.9892 9.20739C13.1928 9.25947 13.3727 9.27841 13.5289 9.2642C13.6852 9.25 13.8237 9.18016 13.9444 9.05469C14.0675 8.93158 14.18 8.73153 14.2818 8.45455L14.438 8.02841L12.421 2.54545H13.3301L14.8358 6.89205H14.8926L16.3983 2.54545H17.3074L14.992 8.79545C14.8878 9.07718 14.7588 9.31037 14.6049 9.49503C14.4511 9.68205 14.2723 9.82055 14.0687 9.91051C13.8675 10.0005 13.6402 10.0455 13.3869 10.0455ZM18.4135 8V2.54545H22.7033V8H21.8652V3.3267H19.2516V8H18.4135ZM26.535 9.76136V7.21875H27.0037C27.1647 7.07197 27.3162 6.86482 27.4583 6.5973C27.6027 6.32741 27.7246 5.96757 27.824 5.51776C27.9258 5.06558 27.9933 4.49148 28.0265 3.79545L28.1827 0.727273H32.5009V7.21875H33.339V9.74716H32.5009V8H27.373V9.76136H26.535ZM28.0549 7.21875H31.6628V1.50852H28.9782L28.8645 3.79545C28.8361 4.32576 28.7864 4.80634 28.7154 5.23722C28.6444 5.66572 28.5532 6.04569 28.4419 6.37713C28.3307 6.7062 28.2016 6.98674 28.0549 7.21875ZM34.2152 8L36.4311 5.23011L34.2436 2.54545H35.2379L37.0561 4.875H37.5107V2.54545H38.3487V4.875H38.7891L40.6072 2.54545H41.6016L39.4283 5.23011L41.63 8H40.6214L38.7749 5.65625H38.3487V8H37.5107V5.65625H37.0845L35.2237 8H34.2152ZM44.8189 8.11364C44.3265 8.11364 43.8944 7.99645 43.5227 7.76207C43.1534 7.5277 42.8646 7.19981 42.6562 6.77841C42.4503 6.35701 42.3473 5.86458 42.3473 5.30114C42.3473 4.73295 42.4503 4.23698 42.6562 3.81321C42.8646 3.38944 43.1534 3.06037 43.5227 2.82599C43.8944 2.59162 44.3265 2.47443 44.8189 2.47443C45.3113 2.47443 45.7422 2.59162 46.1115 2.82599C46.4832 3.06037 46.772 3.38944 46.978 3.81321C47.1863 4.23698 47.2905 4.73295 47.2905 5.30114C47.2905 5.86458 47.1863 6.35701 46.978 6.77841C46.772 7.19981 46.4832 7.5277 46.1115 7.76207C45.7422 7.99645 45.3113 8.11364 44.8189 8.11364ZM44.8189 7.3608C45.1929 7.3608 45.5007 7.26491 45.7422 7.07315C45.9837 6.88139 46.1624 6.62926 46.2784 6.31676C46.3944 6.00426 46.4524 5.66572 46.4524 5.30114C46.4524 4.93655 46.3944 4.59683 46.2784 4.28196C46.1624 3.96709 45.9837 3.71259 45.7422 3.51847C45.5007 3.32434 45.1929 3.22727 44.8189 3.22727C44.4448 3.22727 44.1371 3.32434 43.8956 3.51847C43.6541 3.71259 43.4754 3.96709 43.3594 4.28196C43.2434 4.59683 43.1854 4.93655 43.1854 5.30114C43.1854 5.66572 43.2434 6.00426 43.3594 6.31676C43.4754 6.62926 43.6541 6.88139 43.8956 7.07315C44.1371 7.26491 44.4448 7.3608 44.8189 7.3608ZM48.5698 10.0455V2.54545H49.3794V3.41193H49.4789C49.5404 3.31723 49.6257 3.1965 49.7346 3.04972C49.8458 2.90057 50.0044 2.76799 50.2104 2.65199C50.4187 2.53362 50.7005 2.47443 51.0556 2.47443C51.5149 2.47443 51.9197 2.58925 52.2701 2.81889C52.6204 3.04853 52.8939 3.37405 53.0904 3.79545C53.2869 4.21686 53.3851 4.71402 53.3851 5.28693C53.3851 5.86458 53.2869 6.36529 53.0904 6.78906C52.8939 7.21046 52.6216 7.53717 52.2736 7.76918C51.9256 7.99882 51.5243 8.11364 51.0698 8.11364C50.7194 8.11364 50.4389 8.05563 50.2282 7.93963C50.0175 7.82126 49.8553 7.6875 49.7417 7.53835C49.628 7.38684 49.5404 7.26136 49.4789 7.16193H49.4078V10.0455H48.5698ZM49.3936 5.27273C49.3936 5.68466 49.454 6.04806 49.5748 6.36293C49.6955 6.67543 49.8719 6.92045 50.1039 7.09801C50.3359 7.2732 50.62 7.3608 50.9561 7.3608C51.3065 7.3608 51.5989 7.26847 51.8333 7.08381C52.07 6.89678 52.2476 6.64583 52.3659 6.33097C52.4867 6.01373 52.5471 5.66098 52.5471 5.27273C52.5471 4.8892 52.4879 4.54356 52.3695 4.2358C52.2535 3.92566 52.0771 3.68063 51.8404 3.50071C51.606 3.31842 51.3113 3.22727 50.9561 3.22727C50.6152 3.22727 50.3288 3.31368 50.0968 3.48651C49.8648 3.65696 49.6896 3.89607 49.5712 4.20384C49.4528 4.50923 49.3936 4.86553 49.3936 5.27273ZM56.2686 8.12784C55.923 8.12784 55.6093 8.06274 55.3276 7.93253C55.0459 7.79995 54.8221 7.60938 54.6564 7.3608C54.4907 7.10985 54.4078 6.80682 54.4078 6.4517C54.4078 6.1392 54.4694 5.88589 54.5925 5.69176C54.7156 5.49527 54.8801 5.34138 55.0861 5.23011C55.2921 5.11884 55.5194 5.03598 55.7679 4.98153C56.0189 4.92472 56.271 4.87973 56.5243 4.84659C56.8558 4.80398 57.1245 4.77202 57.3304 4.75071C57.5388 4.72704 57.6903 4.68797 57.785 4.63352C57.882 4.57907 57.9306 4.48437 57.9306 4.34943V4.32102C57.9306 3.97064 57.8347 3.69839 57.6429 3.50426C57.4535 3.31013 57.1659 3.21307 56.78 3.21307C56.3799 3.21307 56.0662 3.30066 55.839 3.47585C55.6117 3.65104 55.4519 3.83807 55.3596 4.03693L54.5641 3.75284C54.7061 3.4214 54.8955 3.16335 55.1323 2.97869C55.3714 2.79167 55.6318 2.66146 55.9135 2.58807C56.1976 2.51231 56.477 2.47443 56.7516 2.47443C56.9268 2.47443 57.128 2.49574 57.3553 2.53835C57.5849 2.5786 57.8063 2.66264 58.0194 2.79048C58.2348 2.91832 58.4135 3.11127 58.5556 3.36932C58.6976 3.62737 58.7686 3.97301 58.7686 4.40625V8H57.9306V7.26136H57.888C57.8311 7.37973 57.7364 7.50639 57.6039 7.64134C57.4713 7.77628 57.2949 7.8911 57.0748 7.9858C56.8546 8.08049 56.5859 8.12784 56.2686 8.12784ZM56.3965 7.375C56.7279 7.375 57.0073 7.3099 57.2346 7.17969C57.4642 7.04948 57.637 6.88139 57.753 6.67543C57.8714 6.46946 57.9306 6.25284 57.9306 6.02557V5.25852C57.8951 5.30114 57.8169 5.3402 57.6962 5.37571C57.5778 5.40885 57.4405 5.43845 57.2843 5.46449C57.1304 5.48816 56.9801 5.50947 56.8333 5.52841C56.6889 5.54498 56.5717 5.55919 56.4817 5.57102C56.2639 5.59943 56.0603 5.6456 55.8709 5.70952C55.6839 5.77107 55.5324 5.86458 55.4164 5.99006C55.3027 6.11316 55.2459 6.28125 55.2459 6.49432C55.2459 6.78551 55.3536 7.00568 55.5691 7.15483C55.7869 7.30161 56.0627 7.375 56.3965 7.375ZM62.5852 8.11364C62.0597 8.11364 61.6063 7.99763 61.2251 7.76562C60.8464 7.53125 60.554 7.20455 60.348 6.78551C60.1444 6.36411 60.0426 5.87405 60.0426 5.31534C60.0426 4.75663 60.1444 4.2642 60.348 3.83807C60.554 3.40956 60.8404 3.07576 61.2074 2.83665C61.5767 2.59517 62.0076 2.47443 62.5 2.47443C62.7841 2.47443 63.0646 2.52178 63.3416 2.61648C63.6186 2.71117 63.8707 2.86506 64.098 3.07812C64.3253 3.28883 64.5064 3.56818 64.6413 3.91619C64.7763 4.2642 64.8438 4.69271 64.8438 5.2017V5.55682H60.6392V4.83239H63.9915C63.9915 4.52462 63.9299 4.25 63.8068 4.00852C63.6861 3.76705 63.5133 3.57647 63.2884 3.43679C63.0658 3.29711 62.803 3.22727 62.5 3.22727C62.1662 3.22727 61.8774 3.31013 61.6335 3.47585C61.392 3.6392 61.2062 3.85227 61.076 4.11506C60.9458 4.37784 60.8807 4.65956 60.8807 4.96023V5.44318C60.8807 5.85511 60.9517 6.20431 61.0938 6.49077C61.2382 6.77486 61.4382 6.99148 61.6939 7.14062C61.9496 7.28741 62.2467 7.3608 62.5852 7.3608C62.8054 7.3608 63.0043 7.33002 63.1818 7.26847C63.3617 7.20455 63.5168 7.10985 63.647 6.98438C63.7772 6.85653 63.8778 6.69792 63.9489 6.50852L64.7585 6.7358C64.6733 7.01042 64.5301 7.25189 64.3288 7.46023C64.1276 7.66619 63.879 7.82718 63.5831 7.94318C63.2872 8.05682 62.9545 8.11364 62.5852 8.11364ZM66.1186 8V2.54545H68.3487C68.9358 2.54545 69.4022 2.67803 69.7479 2.94318C70.0935 3.20833 70.2663 3.55871 70.2663 3.99432C70.2663 4.32576 70.1681 4.58262 69.9716 4.76491C69.7751 4.94484 69.523 5.06676 69.2152 5.13068C69.4164 5.15909 69.6117 5.23011 69.8011 5.34375C69.9929 5.45739 70.1515 5.61364 70.277 5.8125C70.4025 6.009 70.4652 6.25047 70.4652 6.53693C70.4652 6.81629 70.3942 7.06605 70.2521 7.28622C70.1101 7.50639 69.9065 7.6804 69.6413 7.80824C69.3762 7.93608 69.0589 8 68.6896 8H66.1186ZM66.9141 7.23295H68.6896C68.9785 7.23295 69.2045 7.1643 69.3679 7.02699C69.5313 6.88968 69.6129 6.70265 69.6129 6.46591C69.6129 6.18419 69.5313 5.96283 69.3679 5.80185C69.2045 5.63849 68.9785 5.55682 68.6896 5.55682H66.9141V7.23295ZM66.9141 4.83239H68.3487C68.5736 4.83239 68.7666 4.80161 68.9276 4.74006C69.0885 4.67614 69.2116 4.58617 69.2969 4.47017C69.3845 4.3518 69.4283 4.21212 69.4283 4.05114C69.4283 3.8215 69.3324 3.64157 69.1406 3.51136C68.9489 3.37879 68.6849 3.3125 68.3487 3.3125H66.9141V4.83239Z" fill="#444444"/>
</svg>
