<svg width="20" height="20" fill="none" xmlns="http://www.w3.org/2000/svg"><path d="M0 10.588V9.416c.012-.069.026-.138.036-.207.063-.43.098-.867.19-1.291.523-2.401 1.756-4.369 3.712-5.85C6.372.223 9.113-.388 12.101.235c2.392.499 4.337 1.752 5.824 3.685 1.607 2.088 2.275 4.465 2.024 7.081-.204 2.12-1.027 3.992-2.44 5.59-1.549 1.75-3.478 2.842-5.785 3.252-.376.067-.758.105-1.137.156H9.415c-.05-.011-.1-.029-.15-.032-1.565-.11-3.029-.558-4.364-1.376-2.59-1.587-4.186-3.876-4.745-6.87-.07-.375-.105-.756-.156-1.134zm4.774 5.954c2.355 1.968 5.92 2.422 8.69 1.084-.338-2.068-.929-4.068-1.676-6.023-1.935.336-5.606 2.925-7.014 4.94zm-1.172-1.121a17.444 17.444 0 013.41-3.2c1.279-.909 2.654-1.63 4.171-2.121l-.862-1.834c-2.838.957-5.741 1.36-8.71 1.396-.046 2.172.6 4.075 1.99 5.759zM6.636 2.326C4.192 3.363 2.365 5.671 1.854 8.05c2.619-.054 5.182-.42 7.699-1.227a39.139 39.139 0 00-2.917-4.497zm5.212 5.353c.298.653.586 1.292.885 1.925.02.04.127.066.185.056a14.306 14.306 0 015.278.05c.059.012.12.012.19.018-.08-1.886-.701-3.539-1.871-5.007-1.387 1.264-2.959 2.215-4.667 2.958zm-.712-1.453c1.138-.37 3.52-1.857 4.24-2.658a8.318 8.318 0 00-4.529-1.913c-.86-.09-1.718-.058-2.527.134l2.816 4.437zm3.808 10.554c1.821-1.396 2.94-3.171 3.342-5.411-1.633-.366-3.253-.445-4.916-.165a33.62 33.62 0 011.574 5.576z" fill="#8B8B8B"/></svg>