<svg width="28" height="28" fill="none" xmlns="http://www.w3.org/2000/svg"><circle cx="14" cy="14" r="14" fill="#000"/><path d="M7.34 8.562h.108c.783.01 1.536.31 2.112.842v-.808c.003-.025.015-.036.036-.036h.948c.024.003.036.016.036.036v6.272a.03.03 0 01-.01.027.035.035 0 01-.026.009h-.949a.03.03 0 01-.027-.01.035.035 0 01-.009-.026v-.808a3.084 3.084 0 01-2.04.843H7.25a3.155 3.155 0 01-2.238-1.076 3.243 3.243 0 01-.77-2.042v-.09a3.114 3.114 0 011.326-2.544 3.058 3.058 0 011.772-.59zm-2.077 3.117v.108a2.097 2.097 0 001.093 1.827c.288.168.615.26.948.27h.18a2.133 2.133 0 002.059-2.08v-.143a2.13 2.13 0 00-1.254-1.899 2.426 2.426 0 00-.858-.179h-.054a2.14 2.14 0 00-2.114 2.096z" fill="#fff"/><path d="M16.183 6.788c.024.003.036.015.036.035v8.045a.03.03 0 01-.01.027.035.035 0 01-.026.009h-.949a.03.03 0 01-.027-.01.035.035 0 01-.009-.026v-.808a3.083 3.083 0 01-2.041.842h-.269a3.158 3.158 0 01-2.238-1.075 3.243 3.243 0 01-.77-2.042v-.09a3.113 3.113 0 011.325-2.544 3.056 3.056 0 011.773-.59h.107a3.18 3.18 0 012.113.841V6.823c.003-.024.015-.035.035-.035h.95zm-5.282 4.891v.108a2.097 2.097 0 001.092 1.827c.29.168.615.26.95.27h.178a2.133 2.133 0 002.06-2.08v-.143a2.131 2.131 0 00-1.254-1.899 2.431 2.431 0 00-.858-.179h-.054a2.14 2.14 0 00-2.112 2.096H10.9z" fill="#fff"/><path d="M18.61 8.656h.16a3.052 3.052 0 012.418 1.237 2.99 2.99 0 01.626 1.773v.253c0 .215-.018.323-.053.323H16.57v.017a2.202 2.202 0 002.077 1.703h.09a2.19 2.19 0 001.682-.824h1.075a2.943 2.943 0 01-1.611 1.54c-.37.152-.765.23-1.164.233h-.035a3.102 3.102 0 01-2.686-1.54 3.29 3.29 0 01-.43-1.595 3.116 3.116 0 013.043-3.12h-.002zm-2.042 2.651c2.373.012 3.793.018 4.261.018v-.022a2.262 2.262 0 00-.913-1.344 2.168 2.168 0 00-1.145-.354h-.18a2.134 2.134 0 00-1.715.968 2.37 2.37 0 00-.306.734h-.002zm-2.726 4.533a3.124 3.124 0 00-2.58-1.396h-.101a3.124 3.124 0 00-2.58 1.396 3.082 3.082 0 00-.537 1.684v.18A3.147 3.147 0 009.53 20.32c.153.087.313.164.476.23.335.153.697.233 1.064.235h.287a2.59 2.59 0 001.062-.235c.164-.066.324-.143.478-.23a3.146 3.146 0 001.486-2.615v-.18a3.083 3.083 0 00-.537-1.684h-.005zm-2.726 3.925a2 2 0 01-.948-.269 2.539 2.539 0 01-.43-.33l-.008.014a2.967 2.967 0 01-.281-.313 2.061 2.061 0 01-.393-1.182v-.142c-.005-.38.104-.754.313-1.072l.02.024a2.53 2.53 0 01.33-.423l.149-.129.04-.031c.2-.159.428-.28.67-.357.124-.036.25-.063.378-.079h.015c.04-.005.08-.005.12-.007l.094-.005h.039l.095.005.119.007h.015c.128.016.253.043.377.079.243.078.47.198.67.357l.041.031.151.13c.125.128.236.27.331.422l.02-.024c.208.318.317.692.312 1.072v.142a2.06 2.06 0 01-.394 1.182 2.87 2.87 0 01-.28.313l-.009-.015a2.762 2.762 0 01-.429.33c-.289.167-.615.26-.949.27h-.178z" fill="#fff"/><path d="M17.398 19.661v1.111l-.125.005h-.072c-1.966.114-3.154-.675-3.563-2.365l-.018-.717c.012-.352.018-.74.018-1.164v-2.06a.03.03 0 01.01-.027.035.035 0 01.026-.01h.949a.03.03 0 01.027.01c.006.007.01.017.009.026v2.724l.071 1.039c.197.985.884 1.493 2.06 1.523.206-.002.411-.033.608-.095z" fill="#fff"/><path d="M18.632 14.444h.108a3.187 3.187 0 012.112.841v-.808c.003-.024.015-.035.036-.035h.95c.025.003.036.015.036.035v6.27a.03.03 0 01-.009.028.035.035 0 01-.027.009h-.948a.03.03 0 01-.027-.01.035.035 0 01-.01-.026v-.808a3.083 3.083 0 01-2.04.842h-.269a3.163 3.163 0 01-2.238-1.076 3.243 3.243 0 01-.77-2.042v-.09a3.114 3.114 0 011.325-2.544 3.06 3.06 0 011.77-.587h.001zm-2.077 3.117v.107a2.108 2.108 0 001.093 1.829c.288.167.615.26.948.268h.18a2.133 2.133 0 002.059-2.078v-.143a2.129 2.129 0 00-1.254-1.899 2.437 2.437 0 00-.858-.179h-.053a2.14 2.14 0 00-2.113 2.096l-.002-.001z" fill="#fff"/></svg>