<svg width="21" height="20" fill="none" xmlns="http://www.w3.org/2000/svg"><path d="M9.248 0h1.513c.085.024.166.057.252.065 4.123.451 7.417 3.18 8.58 7.153.195.66.277 1.35.411 2.026v1.512c-.024.114-.057.224-.073.338-.537 3.94-2.648 6.694-6.312 8.198-.898.37-1.903.48-2.863.708H9.244c-.098-.024-.196-.061-.297-.07a9.945 9.945 0 01-8.492-6.978C.244 12.241.15 11.492 0 10.756V9.244c.024-.114.057-.224.073-.338C.66 4.746 2.936 1.944 6.881.525 7.633.252 8.455.17 9.248 0zm2.301 13.713c.468.557.537 1.175.525 1.826-.012.561-.008 1.126-.008 1.688 0 .74.191.87.882.61 3.701-1.404 5.864-5.157 5.279-9.17C17.58 4.204 13.18.98 8.743 1.716c-6.266 1.04-9.182 8.222-5.4 13.318.996 1.342 2.298 2.29 3.875 2.854.314.114.643.135.696-.268.06-.488.016-.988.016-1.472-.276.016-.484.032-.691.04-1.045.053-1.773-.357-2.2-1.362-.171-.398-.537-.72-.842-1.057-.102-.114-.277-.159-.419-.232l.15-.26c.269.04.586 0 .79.134.333.22.638.52.878.846.524.703 1.256.968 2.066.67.122-.044.264-.146.317-.255.15-.313.26-.647.39-.98-.15-.025-.325-.057-.5-.086a3.854 3.854 0 01-2.521-6.06c.093-.133.097-.34.105-.516.033-.54.033-1.085.074-1.622.02-.265.199-.407.467-.301.55.211 1.082.455 1.631.667.191.073.419.138.61.101a8.583 8.583 0 013.526 0c.191.041.419-.02.61-.093.549-.208 1.082-.456 1.63-.671.265-.102.452.024.472.293.045.54.053 1.081.078 1.622.008.15-.029.346.048.448.61.768.749 1.65.7 2.594-.094 1.785-.984 2.957-2.643 3.416-.342.09-.692.143-1.107.228z" fill="#8B8B8B"/></svg>