<svg width="23" height="19" fill="none" xmlns="http://www.w3.org/2000/svg"><path d="M6.89 14.74c-2.183-.194-3.617-1.285-4.43-3.296.685.064 1.348.107 2.054-.107C2.182 10.61.963 9.07.792 6.63c.663.278 1.326.557 2.075.535C.813 5.432.321 3.357 1.455.854c2.61 3.038 5.84 4.706 9.799 4.985-.021-.236-.021-.471-.043-.685-.235-2.31 1.327-4.472 3.552-5.007 1.583-.363 3.016-.064 4.257 1.006.3.278.6.342.985.214.77-.3 1.562-.578 2.332-.856-.3.963-.963 1.733-1.776 2.375 0 .021.021.043.021.064.792-.214 1.584-.406 2.375-.62l.043.043c-.428.47-.834.941-1.262 1.39a4.788 4.788 0 01-.77.706c-.193.15-.257.321-.257.557.021 1.519-.193 3.016-.685 4.45-1.091 3.23-3.017 5.777-5.948 7.531-1.497.899-3.124 1.433-4.857 1.669-2.203.32-4.364.15-6.461-.578-.813-.278-2.31-.984-2.76-1.37 2.525.193 4.814-.427 6.89-1.989z" fill="#6BC5F8"/></svg>